<svg xmlns="http://www.w3.org/2000/svg" xmlns:xlink="http://www.w3.org/1999/xlink" width="24" height="24" preserveAspectRatio="xMidYMid meet" viewBox="0 0 24 24" style="-ms-transform: rotate(360deg); -webkit-transform: rotate(360deg); transform: rotate(360deg);"><path fill-opacity=".886" d="M16 8a3 3 0 0 1 3 3v8a3 3 0 0 1-3 3H7a3 3 0 0 1-3-3v-8a3 3 0 0 1 3-3V6.5a4.5 4.5 0 1 1 9 0V8zM7 9a2 2 0 0 0-2 2v8a2 2 0 0 0 2 2h9a2 2 0 0 0 2-2v-8a2 2 0 0 0-2-2H7zm8-1V6.5a3.5 3.5 0 0 0-7 0V8h7zm-3.5 6a1.5 1.5 0 1 0 0 3a1.5 1.5 0 0 0 0-3zm0-1a2.5 2.5 0 1 1 0 5a2.5 2.5 0 0 1 0-5z" fill="#626262"/><rect x="0" y="0" width="24" height="24" fill="rgba(0, 0, 0, 0)" /></svg>