<svg xmlns="http://www.w3.org/2000/svg" xmlns:xlink="http://www.w3.org/1999/xlink" width="24" height="24" preserveAspectRatio="xMidYMid meet" viewBox="0 0 24 24" style="-ms-transform: rotate(360deg); -webkit-transform: rotate(360deg); transform: rotate(360deg);"><path d="M11.5 14c4.142 0 7.5 1.567 7.5 3.5V20H4v-2.5c0-1.933 3.358-3.5 7.5-3.5zm6.5 3.5c0-1.38-2.91-2.5-6.5-2.5S5 16.12 5 17.5V19h13v-1.5zM11.5 5a3.5 3.5 0 1 1 0 7a3.5 3.5 0 0 1 0-7zm0 1a2.5 2.5 0 1 0 0 5a2.5 2.5 0 0 0 0-5z" fill="#626262"/><rect x="0" y="0" width="24" height="24" fill="rgba(0, 0, 0, 0)" /></svg>